<svg width="38" height="34" viewBox="0 0 38 34" fill="none" xmlns="http://www.w3.org/2000/svg">
<path d="M24.0407 19.6881C24.0407 22.4737 21.7856 24.7288 19 24.7288C16.2144 24.7288 13.9593 22.4737 13.9593 19.6881C13.9593 16.9025 16.2144 14.6474 19 14.6474C21.7856 14.6474 24.0407 16.9025 24.0407 19.6881ZM34.3561 7.05524C36.3692 7.05524 38 8.68604 38 10.6992V20.2499V28.3493C38 30.4951 36.26 32.2351 34.1142 32.2351H3.88583C1.74004 32.2351 0 30.4951 0 28.3493V20.2421V10.6992C0 8.68604 1.6308 7.05524 3.64394 7.05524H10.9318L11.2752 5.60391C11.7979 3.35668 13.8033 1.76489 16.1129 1.76489H21.8949C24.2045 1.76489 26.2099 3.35668 26.7326 5.60391L27.0682 7.05524H34.3561ZM7.6 12.3144C7.6 11.3078 6.7807 10.4885 5.77413 10.4885C4.75975 10.4885 3.94045 11.3078 3.94045 12.3144C3.94045 13.3209 4.75975 14.1403 5.76632 14.1403C6.7807 14.1481 7.6 13.3288 7.6 12.3144ZM27.9889 19.6881C27.9889 14.7255 23.9626 10.6992 19 10.6992C14.0374 10.6992 10.0111 14.7255 10.0111 19.6881C10.0111 24.6507 14.0374 28.677 19 28.677C23.9626 28.677 27.9889 24.6507 27.9889 19.6881Z" fill="white" stroke="white" stroke-width="1.64271"/>
</svg>
