<svg width="19" height="18" viewBox="0 0 19 18" fill="none" xmlns="http://www.w3.org/2000/svg">
<path fill-rule="evenodd" clip-rule="evenodd" d="M14.198 2.51999C14.5078 2.2252 14.9219 2.06554 15.3494 2.07614C15.7769 2.08673 16.1827 2.26671 16.4775 2.57649C16.7723 2.88626 16.9319 3.30045 16.9213 3.72794C16.9107 4.15543 16.7308 4.5612 16.421 4.85599L5.34598 15.421L2.49198 15.796L3.66198 12.524L14.197 2.52099L14.198 2.51999ZM17.923 1.19799C17.263 0.505218 16.355 0.10265 15.3985 0.0786522C14.4419 0.0546541 13.5149 0.411187 12.821 1.06999L2.10998 11.238C1.99645 11.3457 1.90979 11.4786 1.85698 11.626L0.0569843 16.663C-0.000672307 16.8243 -0.0159114 16.9978 0.0127283 17.1667C0.0413681 17.3356 0.112926 17.4943 0.22054 17.6276C0.328154 17.7609 0.468214 17.8644 0.627289 17.928C0.786364 17.9916 0.959118 18.0133 1.12898 17.991L5.92898 17.361C6.13924 17.3336 6.33534 17.2401 6.48898 17.094L17.8 6.30399C18.4931 5.643 18.8954 4.73377 18.9183 3.77625C18.9412 2.81873 18.5838 1.89132 17.923 1.19799ZM11 16C10.7348 16 10.4804 16.1053 10.2929 16.2929C10.1053 16.4804 9.99998 16.7348 9.99998 17C9.99998 17.2652 10.1053 17.5196 10.2929 17.7071C10.4804 17.8946 10.7348 18 11 18H17C17.2652 18 17.5196 17.8946 17.7071 17.7071C17.8946 17.5196 18 17.2652 18 17C18 16.7348 17.8946 16.4804 17.7071 16.2929C17.5196 16.1053 17.2652 16 17 16H11Z" fill="white" fill-opacity="0.3"/>
</svg>
