<svg width="103" height="98" viewBox="0 0 103 98" fill="none" xmlns="http://www.w3.org/2000/svg">
<path d="M65.205 36.6085L37.8246 60.371" stroke="white" stroke-width="3" stroke-linecap="round"/>
<path d="M55.6953 25.651L38.8376 40.2812" stroke="white" stroke-width="3" stroke-linecap="round"/>
<path d="M83.5739 11.8004L70.3255 42.5088" stroke="white" stroke-width="3" stroke-linecap="round"/>
<path d="M83.5739 11.8004L50.5747 19.7508" stroke="white" stroke-width="3" stroke-linecap="round"/>
<path d="M32.269 54.8481L37.3896 60.7484" stroke="white" stroke-width="3" stroke-linecap="round"/>
<path d="M38.8375 40.2812L43.9581 46.1815" stroke="white" stroke-width="3" stroke-linecap="round"/>
<path d="M65.205 36.6085L70.3255 42.5087" stroke="white" stroke-width="3" stroke-linecap="round"/>
<path d="M50.5747 19.7507L55.6953 25.6509" stroke="white" stroke-width="3" stroke-linecap="round"/>
<path d="M37.3787 60.7579L64.7147 36.9444" stroke="#E9B10E" stroke-width="3" stroke-linecap="round"/>
<path d="M46.9087 71.6979L63.7391 57.0362" stroke="#E9B10E" stroke-width="3" stroke-linecap="round"/>
<path d="M19.0562 85.6002L32.2472 54.8672" stroke="#E9B10E" stroke-width="3" stroke-linecap="round"/>
<path d="M19.0562 85.6002L52.0404 77.5883" stroke="#E9B10E" stroke-width="3" stroke-linecap="round"/>
<path d="M70.2805 42.4569L65.1489 36.5663" stroke="white" stroke-width="3" stroke-linecap="round"/>
<path d="M63.7391 57.036L58.6076 51.1454" stroke="#E9B10E" stroke-width="3" stroke-linecap="round"/>
<path d="M37.3787 60.7579L32.2471 54.8673" stroke="#E9B10E" stroke-width="3" stroke-linecap="round"/>
<path d="M52.0404 77.5884L46.9088 71.6977" stroke="#E9B10E" stroke-width="3" stroke-linecap="round"/>
</svg>
