<svg width="32" height="30" viewBox="0 0 32 30" fill="none" xmlns="http://www.w3.org/2000/svg">
<path d="M31.6167 15C31.6167 16.6667 30.1834 17.9834 29.7167 19.45C29.25 20.9167 29.55 22.9167 28.6334 24.1667C27.7167 25.4167 25.75 25.7334 24.4667 26.65C23.1834 27.5667 22.3334 29.35 20.8334 29.85C19.3334 30.35 17.6667 29.4167 16 29.4167C14.3334 29.4167 12.6667 30.3334 11.1667 29.8667C9.6667 29.4 8.78336 27.5834 7.53336 26.6667C6.28336 25.75 4.33336 25.4667 3.3667 24.1834C2.40003 22.9 2.78336 20.9834 2.28336 19.4667C1.78336 17.95 0.383362 16.6667 0.383362 15C0.383362 13.3334 1.81669 12 2.28336 10.5334C2.75003 9.0667 2.45003 7.0667 3.3667 5.8167C4.28336 4.5667 6.25003 4.2667 7.53336 3.33337C8.8167 2.40004 9.6667 0.650038 11.1667 0.150038C12.6667 -0.349962 14.3834 0.600038 16 0.600038C17.6167 0.600038 19.3334 -0.316629 20.8334 0.150038C22.3334 0.616705 23.2167 2.43337 24.4667 3.33337C25.7167 4.23337 27.7 4.53337 28.6334 5.8167C29.5667 7.10004 29.2167 9.0167 29.7167 10.5334C30.2167 12.05 31.6167 13.3334 31.6167 15Z" fill="#E9B10E"/>
<path d="M9.33337 15.0001L14.3334 20.0001L22.6667 11.6667" stroke="black" stroke-width="3" stroke-linecap="round" stroke-linejoin="round"/>
</svg>
